<?xml version="1.0" encoding="utf-8"?>
<!-- Generator: Adobe Illustrator 16.0.0, SVG Export Plug-In . SVG Version: 6.00 Build 0)  -->
<!DOCTYPE svg PUBLIC "-//W3C//DTD SVG 1.1//EN" "http://www.w3.org/Graphics/SVG/1.1/DTD/svg11.dtd">
<svg version="1.1" id="Layer_1" xmlns="http://www.w3.org/2000/svg" xmlns:xlink="http://www.w3.org/1999/xlink" x="0px" y="0px"
	 width="671.772px" height="671.782px" viewBox="0 0 671.772 671.782" enable-background="new 0 0 671.772 671.782"
	 xml:space="preserve">
<g>
	<path fill="#2FAF3C" d="M130.629,304.186v-33.504l80.557-80.557h92.99V0H134.354C60.134,0,0,60.154,0,134.354v169.831H130.629z"/>
	<path fill="#2FAF3C" d="M367.577,190.125h173.567v114.061h130.628V134.354C671.772,60.154,611.599,0,537.418,0H367.577V190.125z"/>
	<path fill="#2FAF3C" d="M541.145,367.587v33.494l-80.558,80.567h-93.01v190.134h169.841c74.181,0,134.354-60.153,134.354-134.364
		V367.587H541.145z"/>
	<path fill="#2FAF3C" d="M304.176,481.648H130.629V367.587H0v169.831c0,74.211,60.134,134.364,134.354,134.364h169.821V481.648z"/>
</g>
</svg>
