<?xml version="1.0" encoding="utf-8"?>
<!-- Generator: Adobe Illustrator 16.0.0, SVG Export Plug-In . SVG Version: 6.00 Build 0)  -->
<!DOCTYPE svg PUBLIC "-//W3C//DTD SVG 1.1//EN" "http://www.w3.org/Graphics/SVG/1.1/DTD/svg11.dtd">
<svg version="1.1" id="Layer_1" xmlns="http://www.w3.org/2000/svg" xmlns:xlink="http://www.w3.org/1999/xlink" x="0px" y="0px"
	 width="1576.955px" height="340.214px" viewBox="0 0 1576.955 340.214" enable-background="new 0 0 1576.955 340.214"
	 xml:space="preserve">
<g>
	<g>
		<path fill="#2FAF3C" d="M66.136,154.053v-16.978l40.791-40.792h47.091V0H68.022C30.434,0,0,30.469,0,68.056v85.997H66.136z"/>
		<path fill="#2FAF3C" d="M186.125,96.283h87.919v57.77h66.135V68.056C340.179,30.469,309.71,0,272.158,0h-86.033V96.283z"/>
		<path fill="#2FAF3C" d="M274.044,186.16v16.96l-40.791,40.81h-47.128v96.284h86.033c37.552,0,68.021-30.469,68.021-68.057V186.16
			H274.044z"/>
		<path fill="#2FAF3C" d="M154.018,243.93H66.136v-57.77H0v85.997c0,37.588,30.434,68.057,68.022,68.057h85.996V243.93z"/>
	</g>
	<g>
		<path fill="#2FAF3C" d="M590.48,282.087h-47.304v-96.674h-88.702v96.674h-47.483V58.126h47.483v87.776h88.702V58.126h47.304
			V282.087z"/>
		<path fill="#2FAF3C" d="M776.002,282.087H647.041V58.126h128.961v38.906h-81.478v49.191h75.818v38.905h-75.818v57.735h81.478
			V282.087z"/>
		<path fill="#2FAF3C" d="M822.738,282.087V58.126h47.482v223.961H822.738z"/>
		<path fill="#2FAF3C" d="M1021.392,282.087l-53.926-175.695h-1.389c1.958,35.737,2.919,59.585,2.919,71.528v104.167h-42.429V58.126
			h64.64l53.001,171.264h0.924l56.206-171.264h64.64v223.961h-44.245v-106c0-5.02,0.071-10.786,0.214-17.317
			c0.143-6.533,0.854-23.902,2.064-52.075h-1.388l-57.734,175.392H1021.392z"/>
		<path fill="#2FAF3C" d="M1351.319,282.087h-128.96V58.126h128.96v38.906h-81.477v49.191h75.816v38.905h-75.816v57.735h81.477
			V282.087z"/>
		<path fill="#2FAF3C" d="M1445.538,196.144v85.943h-47.482V58.126h65.244c30.435,0,52.93,5.553,67.56,16.623
			c14.594,11.087,21.892,27.907,21.892,50.474c0,13.169-3.632,24.899-10.893,35.167c-7.226,10.252-17.513,18.297-30.79,24.116
			c33.708,50.349,55.671,82.883,65.887,97.583h-52.681l-53.464-85.943H1445.538z M1445.538,157.542h15.307
			c15.021,0,26.091-2.491,33.244-7.511c7.156-4.983,10.715-12.849,10.715-23.582c0-10.625-3.665-18.17-10.963-22.655
			c-7.297-4.503-18.616-6.762-33.923-6.762h-14.38V157.542z"/>
	</g>
</g>
</svg>
